<svg width="24" height="24" viewBox="0 0 24 24" fill="none" xmlns="http://www.w3.org/2000/svg">
<path d="M5 10.0018C4.99954 9.76811 5.08092 9.54167 5.23 9.36176C5.31395 9.2605 5.41705 9.1768 5.5334 9.11545C5.64974 9.0541 5.77705 9.0163 5.90803 9.00422C6.039 8.99215 6.17107 9.00603 6.29668 9.04507C6.42228 9.08412 6.53895 9.14756 6.64 9.23176L12 13.7118L17.37 9.39176C17.4723 9.30869 17.59 9.24666 17.7163 9.20923C17.8427 9.1718 17.9752 9.15971 18.1062 9.17364C18.2372 9.18758 18.3642 9.22728 18.4798 9.29045C18.5955 9.35363 18.6975 9.43903 18.78 9.54176C18.871 9.64523 18.9397 9.76639 18.9817 9.89765C19.0237 10.0289 19.0381 10.1674 19.024 10.3045C19.0099 10.4416 18.9676 10.5743 18.8998 10.6943C18.832 10.8143 18.7402 10.919 18.63 11.0018L12.63 15.8318C12.4511 15.9788 12.2266 16.0592 11.995 16.0592C11.7634 16.0592 11.5389 15.9788 11.36 15.8318L5.36 10.8318C5.23898 10.7314 5.14332 10.604 5.08077 10.4598C5.01822 10.3156 4.99055 10.1587 5 10.0018Z" fill="#6297D1"/>
</svg>
