<svg width="16" height="16" viewBox="0 0 16 16" fill="none" xmlns="http://www.w3.org/2000/svg">
<path fill-rule="evenodd" clip-rule="evenodd" d="M8 15C9.85652 15 11.637 14.2625 12.9497 12.9497C14.2625 11.637 15 9.85652 15 8C15 6.14348 14.2625 4.36301 12.9497 3.05025C11.637 1.7375 9.85652 1 8 1C6.14348 1 4.36301 1.7375 3.05025 3.05025C1.7375 4.36301 1 6.14348 1 8C1 9.85652 1.7375 11.637 3.05025 12.9497C4.36301 14.2625 6.14348 15 8 15ZM8 16C10.1217 16 12.1566 15.1571 13.6569 13.6569C15.1571 12.1566 16 10.1217 16 8C16 5.87827 15.1571 3.84344 13.6569 2.34315C12.1566 0.842855 10.1217 0 8 0C5.87827 0 3.84344 0.842855 2.34315 2.34315C0.842855 3.84344 0 5.87827 0 8C0 10.1217 0.842855 12.1566 2.34315 13.6569C3.84344 15.1571 5.87827 16 8 16Z" fill="white"/>
<path fill-rule="evenodd" clip-rule="evenodd" d="M11.854 4.14601C11.9006 4.19245 11.9375 4.24763 11.9627 4.30838C11.9879 4.36912 12.0009 4.43424 12.0009 4.50001C12.0009 4.56578 11.9879 4.6309 11.9627 4.69164C11.9375 4.75239 11.9006 4.80756 11.854 4.85401L4.85402 11.854C4.76013 11.9479 4.6328 12.0006 4.50002 12.0006C4.36725 12.0006 4.23991 11.9479 4.14602 11.854C4.05213 11.7601 3.99939 11.6328 3.99939 11.5C3.99939 11.3672 4.05213 11.2399 4.14602 11.146L11.146 4.14601C11.1925 4.09945 11.2476 4.0625 11.3084 4.0373C11.3691 4.01209 11.4343 3.99911 11.5 3.99911C11.5658 3.99911 11.6309 4.01209 11.6917 4.0373C11.7524 4.0625 11.8076 4.09945 11.854 4.14601Z" fill="white"/>
<path fill-rule="evenodd" clip-rule="evenodd" d="M4.14598 4.14601C4.09941 4.19245 4.06247 4.24763 4.03727 4.30838C4.01206 4.36912 3.99908 4.43424 3.99908 4.50001C3.99908 4.56578 4.01206 4.6309 4.03727 4.69164C4.06247 4.75239 4.09941 4.80756 4.14598 4.85401L11.146 11.854C11.2399 11.9479 11.3672 12.0006 11.5 12.0006C11.6328 12.0006 11.7601 11.9479 11.854 11.854C11.9479 11.7601 12.0006 11.6328 12.0006 11.5C12.0006 11.3672 11.9479 11.2399 11.854 11.146L4.85398 4.14601C4.80753 4.09945 4.75236 4.0625 4.69161 4.0373C4.63087 4.01209 4.56575 3.99911 4.49998 3.99911C4.43421 3.99911 4.36909 4.01209 4.30834 4.0373C4.2476 4.0625 4.19242 4.09945 4.14598 4.14601Z" fill="white"/>
</svg>
