<svg width="24" height="24" viewBox="0 0 24 24" fill="none" xmlns="http://www.w3.org/2000/svg">
<path d="M10.0018 18.9999C9.76811 19.0004 9.54167 18.919 9.36176 18.7699C9.2605 18.686 9.1768 18.5829 9.11545 18.4665C9.0541 18.3502 9.0163 18.2229 9.00422 18.0919C8.99215 17.9609 9.00603 17.8289 9.04507 17.7033C9.08412 17.5777 9.14756 17.461 9.23176 17.3599L13.7118 11.9999L9.39176 6.62994C9.30869 6.52765 9.24666 6.40996 9.20923 6.28362C9.1718 6.15728 9.15971 6.02479 9.17364 5.89376C9.18758 5.76273 9.22728 5.63575 9.29045 5.52011C9.35363 5.40447 9.43903 5.30246 9.54176 5.21994C9.64523 5.1289 9.76639 5.06024 9.89765 5.01825C10.0289 4.97626 10.1674 4.96185 10.3045 4.97594C10.4416 4.99002 10.5743 5.03229 10.6943 5.1001C10.8143 5.1679 10.919 5.25977 11.0018 5.36994L15.8318 11.3699C15.9788 11.5489 16.0592 11.7733 16.0592 12.0049C16.0592 12.2366 15.9788 12.461 15.8318 12.6399L10.8318 18.6399C10.7314 18.761 10.604 18.8566 10.4598 18.9192C10.3156 18.9817 10.1587 19.0094 10.0018 18.9999Z" fill="#6297D1"/>
</svg>
