<svg width="24" height="24" viewBox="0 0 24 24" fill="none" xmlns="http://www.w3.org/2000/svg">
<g opacity="0.5">
<path fill-rule="evenodd" clip-rule="evenodd" d="M5.633 5.597C4.79588 6.42864 4.13211 7.41813 3.68015 8.50814C3.22818 9.59815 2.997 10.767 3 11.947C3 16.895 7.027 20.923 11.977 20.925C13.559 20.925 15.103 20.512 16.465 19.727L21.116 21L19.867 16.241C20.5836 14.9246 20.9593 13.4498 20.96 11.951L20.96 11.947C20.96 7 16.933 2.972 11.983 2.97C10.8035 2.9666 9.63499 3.19702 8.54506 3.64792C7.45513 4.09883 6.46537 4.76128 5.633 5.597ZM19.445 11.947L19.445 11.95C19.4451 13.2865 19.0856 14.5984 18.404 15.748L18.242 16.02L18.983 18.844L16.23 18.091L15.948 18.268C14.7584 19.0152 13.3818 19.4108 11.977 19.409C7.863 19.407 4.516 16.06 4.516 11.944C4.51382 10.9637 4.70608 9.9928 5.08165 9.08735C5.45722 8.1819 6.00864 7.35992 6.704 6.669C7.39604 5.97438 8.21889 5.42381 9.125 5.04911C10.0311 4.67442 11.0025 4.48302 11.983 4.486C16.097 4.488 19.445 7.835 19.445 11.947ZM13.856 7.854C13.743 8.079 13.201 9.181 13.126 9.387C13.051 9.592 13.014 9.741 13.238 9.891C13.462 10.041 13.967 10.471 14.117 10.602C14.267 10.733 14.285 10.864 14.173 11.088C14.061 11.312 13.824 12.035 13.06 12.892C12.465 13.559 11.731 14.009 11.506 14.14C11.281 14.271 11.16 14.154 11.048 14.041C10.948 13.94 10.786 13.817 10.655 13.705C10.524 13.593 10.431 13.556 10.281 13.481C10.131 13.406 10 13.443 9.888 13.5C9.775 13.556 8.671 14.005 8.222 14.192C7.787 14.373 7.845 14.558 7.839 14.696C7.83315 14.8389 7.83048 14.982 7.831 15.125C7.8339 15.2387 7.86026 15.3507 7.90845 15.4537C7.95663 15.5568 8.02559 15.6488 8.111 15.724C8.336 15.93 8.878 16.509 9.982 16.509C11.086 16.509 12.153 15.705 12.303 15.593C12.453 15.481 14.718 14.011 15.69 11.761C15.921 11.225 16.059 10.807 16.163 10.482C16.334 9.945 16.309 9.456 16.252 9.069C16.188 8.638 15.71 7.742 15.186 7.555C14.662 7.368 14.213 7.368 14.119 7.424C14.025 7.48 13.968 7.631 13.856 7.854Z" fill="#383838"/>
</g>
</svg>
